<svg width="25" height="24" viewBox="0 0 25 24" fill="none" xmlns="http://www.w3.org/2000/svg">
<path d="M14.7653 22H11.1253C10.8973 22 10.676 21.9221 10.4983 21.7792C10.3206 21.6362 10.1971 21.4368 10.1483 21.214L9.74132 19.33C9.19838 19.0921 8.68355 18.7946 8.20632 18.443L6.36932 19.028C6.15188 19.0973 5.91727 19.0902 5.70444 19.0078C5.49161 18.9254 5.31337 18.7727 5.19932 18.575L3.37532 15.424C3.26246 15.2261 3.2201 14.9958 3.25516 14.7708C3.29022 14.5457 3.40063 14.3392 3.56832 14.185L4.99332 12.885C4.92852 12.2961 4.92852 11.7019 4.99332 11.113L3.56832 9.816C3.40039 9.66177 3.28983 9.45507 3.25477 9.22978C3.2197 9.00449 3.26221 8.77397 3.37532 8.576L5.19532 5.423C5.30937 5.22532 5.48761 5.07259 5.70044 4.99019C5.91327 4.90778 6.14788 4.90066 6.36532 4.97L8.20232 5.555C8.44632 5.375 8.70032 5.207 8.96232 5.055C9.21532 4.913 9.47532 4.784 9.74132 4.669L10.1493 2.787C10.1979 2.5642 10.3212 2.36469 10.4987 2.22155C10.6762 2.07841 10.8973 2.00024 11.1253 2H14.7653C14.9934 2.00024 15.2145 2.07841 15.392 2.22155C15.5695 2.36469 15.6927 2.5642 15.7413 2.787L16.1533 4.67C16.6956 4.90927 17.2102 5.20668 17.6883 5.557L19.5263 4.972C19.7436 4.90292 19.978 4.91017 20.1906 4.99256C20.4032 5.07495 20.5813 5.22753 20.6953 5.425L22.5153 8.578C22.7473 8.985 22.6673 9.5 22.3223 9.817L20.8973 11.117C20.9621 11.7059 20.9621 12.3001 20.8973 12.889L22.3223 14.189C22.6673 14.507 22.7473 15.021 22.5153 15.428L20.6953 18.581C20.5813 18.7787 20.403 18.9314 20.1902 19.0138C19.9774 19.0962 19.7428 19.1033 19.5253 19.034L17.6883 18.449C17.2115 18.8003 16.6969 19.0975 16.1543 19.335L15.7413 21.214C15.6925 21.4366 15.5692 21.6359 15.3917 21.7788C15.2142 21.9218 14.9932 21.9998 14.7653 22ZM12.9413 8C11.8805 8 10.863 8.42143 10.1129 9.17157C9.36275 9.92172 8.94132 10.9391 8.94132 12C8.94132 13.0609 9.36275 14.0783 10.1129 14.8284C10.863 15.5786 11.8805 16 12.9413 16C14.0022 16 15.0196 15.5786 15.7697 14.8284C16.5199 14.0783 16.9413 13.0609 16.9413 12C16.9413 10.9391 16.5199 9.92172 15.7697 9.17157C15.0196 8.42143 14.0022 8 12.9413 8Z" fill="white"/>
</svg>
