<svg width="20" height="19" viewBox="0 0 20 19" fill="none" xmlns="http://www.w3.org/2000/svg">
<path d="M10.7516 0.554299L13.0368 5.21789C13.1808 5.51024 13.4571 5.71372 13.7799 5.7605L18.889 6.50892C19.6972 6.6282 20.02 7.62921 19.4347 8.20222L15.7376 11.8321C15.5054 12.0613 15.3986 12.3887 15.4543 12.7114L16.3275 17.8358C16.4645 18.6474 15.6192 19.2648 14.8969 18.8836L10.3266 16.4629C10.0387 16.3109 9.69497 16.3109 9.40932 16.4629L4.8367 18.8836C4.11214 19.2671 3.26682 18.6474 3.40616 17.8358L4.27935 12.7114C4.33508 12.3887 4.22825 12.0613 3.99602 11.8321L0.298908 8.20222C-0.286314 7.62687 0.0364871 6.62586 0.84465 6.50892L5.95373 5.7605C6.27421 5.71372 6.55288 5.51024 6.69687 5.21789L8.98202 0.554299C9.3443 -0.184766 10.3893 -0.184766 10.7516 0.554299Z" fill="#FFB800"/>
</svg>
