<svg width="20" height="20" viewBox="0 0 20 20" fill="none" xmlns="http://www.w3.org/2000/svg">
<path d="M8.29341 14.2935L6.00041 16.5864V1.00049C6.00041 0.735272 5.89505 0.480918 5.70751 0.293381C5.51998 0.105845 5.26562 0.000488281 5.00041 0.000488281C4.73519 0.000488281 4.48084 0.105845 4.2933 0.293381C4.10576 0.480918 4.00041 0.735272 4.00041 1.00049V16.5864L1.70741 14.2935C1.5188 14.1113 1.2662 14.0105 1.00401 14.0128C0.741809 14.0151 0.490997 14.1203 0.305589 14.3057C0.12018 14.4911 0.0150115 14.7419 0.0127331 15.0041C0.0104547 15.2663 0.111249 15.5189 0.293407 15.7075L4.29341 19.7075C4.48111 19.8947 4.73537 19.9998 5.00046 19.9998C5.26554 19.9998 5.51981 19.8947 5.70751 19.7075L9.70751 15.7075C9.89033 15.519 9.99168 15.2662 9.98967 15.0036C9.98767 14.741 9.88247 14.4898 9.69678 14.3041C9.5111 14.1184 9.25985 14.0133 8.99727 14.0113C8.7347 14.0093 8.48188 14.1107 8.29341 14.2935Z" fill="white" fill-opacity="0.2"/>
<path d="M9 4.00048H19C19.2652 4.00048 19.5196 3.89513 19.7071 3.70759C19.8946 3.52006 20 3.2657 20 3.00049C20 2.73527 19.8946 2.48092 19.7071 2.29338C19.5196 2.10585 19.2652 2.00049 19 2.00049H9C8.73478 2.00049 8.48043 2.10585 8.29289 2.29338C8.10536 2.48092 8 2.73527 8 3.00049C8 3.2657 8.10536 3.52006 8.29289 3.70759C8.48043 3.89513 8.73478 4.00048 9 4.00048Z" fill="white" fill-opacity="0.2"/>
<path d="M19 6.00049H9C8.73478 6.00049 8.48043 6.10585 8.29289 6.29338C8.10536 6.48092 8 6.73527 8 7.00049C8 7.2657 8.10536 7.52006 8.29289 7.70759C8.48043 7.89513 8.73478 8.00048 9 8.00048H19C19.2652 8.00048 19.5196 7.89513 19.7071 7.70759C19.8946 7.52006 20 7.2657 20 7.00049C20 6.73527 19.8946 6.48092 19.7071 6.29338C19.5196 6.10585 19.2652 6.00049 19 6.00049Z" fill="white" fill-opacity="0.2"/>
<path d="M16 10.0005H9C8.73478 10.0005 8.48043 10.1058 8.29289 10.2934C8.10536 10.4809 8 10.7353 8 11.0005C8 11.2657 8.10536 11.5201 8.29289 11.7076C8.48043 11.8951 8.73478 12.0005 9 12.0005H16C16.2652 12.0005 16.5196 11.8951 16.7071 11.7076C16.8946 11.5201 17 11.2657 17 11.0005C17 10.7353 16.8946 10.4809 16.7071 10.2934C16.5196 10.1058 16.2652 10.0005 16 10.0005Z" fill="white" fill-opacity="0.2"/>
</svg>
