<svg width="45" height="44" viewBox="0 0 45 44" fill="none" xmlns="http://www.w3.org/2000/svg">
<path d="M19.1772 28.3271C17.3647 28.3274 15.5928 27.79 14.0856 26.7829C12.5784 25.7758 11.4038 24.3442 10.7101 22.6692C10.0165 20.9941 9.83515 19.151 10.1889 17.3729C10.5427 15.5947 11.4158 13.9615 12.6977 12.6797C16.2693 9.10675 22.0809 9.10675 25.653 12.6797C29.225 16.2527 29.2246 22.0653 25.653 25.6383C24.8033 26.4903 23.794 27.1663 22.6828 27.6277C21.5716 28.0891 20.3804 28.3267 19.1772 28.3271ZM19.1772 12.3445C17.7141 12.3459 16.2902 12.8181 15.116 13.6912C13.9418 14.5643 13.0795 15.7921 12.6565 17.1931C12.2336 18.5941 12.2724 20.0941 12.7672 21.4714C13.2621 22.8486 14.1867 24.0301 15.4046 24.8413C15.7863 25.0957 16.1931 25.3105 16.6185 25.4822C17.8595 25.9854 19.2212 26.1115 20.5334 25.8446C21.8456 25.5778 23.0501 24.9299 23.9961 23.9819C26.6541 21.3232 26.6541 16.9963 23.9961 14.3385C23.3635 13.7047 22.612 13.2021 21.7848 12.8597C20.9575 12.5173 20.0707 12.3417 19.1754 12.3431L19.1772 12.3445Z" fill="white"/>
<path d="M32.8407 34C32.6868 34.0002 32.5343 33.97 32.3921 33.9111C32.2499 33.8522 32.1207 33.7658 32.012 33.6568L23.997 25.6397C23.7772 25.4199 23.6538 25.1217 23.6538 24.8108C23.6538 24.4999 23.7772 24.2018 23.997 23.9819C24.2168 23.7621 24.5149 23.6386 24.8257 23.6386C25.1365 23.6386 25.4346 23.7621 25.6544 23.9819L33.6694 31.999C33.8333 32.1629 33.9449 32.3718 33.9902 32.5992C34.0354 32.8266 34.0122 33.0623 33.9235 33.2765C33.8348 33.4907 33.6846 33.6737 33.4918 33.8025C33.2991 33.9313 33.0725 34 32.8407 34Z" fill="white"/>
</svg>
