<svg width="23" height="22" viewBox="0 0 23 22" fill="none" xmlns="http://www.w3.org/2000/svg">
<path d="M5.24531 19.6026C5.49531 19.7926 5.75531 19.9626 6.02031 20.1276C6.04531 20.1426 6.06531 20.1626 6.09531 20.1776C6.10531 20.1826 6.12031 20.1876 6.13031 20.1926C7.49531 21.0226 9.03031 21.5426 10.6203 21.6976C10.9653 21.7326 11.3203 21.7526 11.7003 21.7526C12.0803 21.7526 12.4353 21.7326 12.7753 21.6976C13.2603 21.6476 13.7403 21.5676 14.2153 21.4526C15.3003 21.1926 16.3353 20.7576 17.2903 20.1726C17.2953 20.1726 17.2953 20.1676 17.3003 20.1676C17.3053 20.1626 17.3103 20.1576 17.3203 20.1526C17.6053 19.9776 17.8803 19.7976 18.1503 19.5976L18.1553 19.5926C20.8853 17.5426 22.4503 14.4076 22.4503 10.9976C22.4503 5.07256 17.6303 0.247559 11.7003 0.247559C5.77031 0.247559 0.945312 5.07756 0.945312 11.0026C0.945312 14.4176 2.51031 17.5526 5.24531 19.6026ZM12.6153 20.2076C12.0303 20.2676 11.3603 20.2726 10.7703 20.2076C10.3503 20.1676 9.94031 20.0976 9.53031 19.9976C8.83531 19.8326 8.16531 19.5776 7.53031 19.2576C8.51031 17.9726 10.0453 17.1976 11.6953 17.1976C13.1003 17.1976 14.4203 17.7426 15.4103 18.7326C15.5753 18.8976 15.7253 19.0726 15.8653 19.2576C14.8503 19.7676 13.7553 20.0926 12.6153 20.2076ZM11.6953 1.75256C16.7953 1.75256 20.9453 5.90256 20.9453 11.0026C20.9453 13.9376 19.5953 16.6376 17.2453 18.4026C17.2153 18.4276 17.1803 18.4476 17.1503 18.4726C16.9453 18.1926 16.7203 17.9226 16.4703 17.6726C15.1953 16.3976 13.5003 15.6976 11.6953 15.6976C9.52531 15.6976 7.50531 16.7426 6.24531 18.4726C6.21531 18.4476 6.18031 18.4276 6.14531 18.4026C6.14531 18.4026 6.14531 18.4026 6.14031 18.4026C3.79531 16.6326 2.44531 13.9376 2.44531 11.0026C2.44531 5.90256 6.59531 1.75256 11.6953 1.75256Z" fill="white"/>
<path d="M11.6953 15.2524C14.3153 15.2524 16.4453 13.1224 16.4453 10.5024C16.4453 7.88244 14.3153 5.75244 11.6953 5.75244C9.07531 5.75244 6.94531 7.88244 6.94531 10.5024C6.94531 13.1224 9.07531 15.2524 11.6953 15.2524ZM11.6953 7.25244C13.4853 7.25244 14.9453 8.71244 14.9453 10.5024C14.9453 12.2924 13.4853 13.7524 11.6953 13.7524C9.90531 13.7524 8.44531 12.2924 8.44531 10.5024C8.44531 8.71244 9.90531 7.25244 11.6953 7.25244Z" fill="white"/>
</svg>
